<?xml version="1.0" encoding="UTF-8" standalone="no"?><!DOCTYPE svg PUBLIC "-//W3C//DTD SVG 1.1//EN" "http://www.w3.org/Graphics/SVG/1.1/DTD/svg11.dtd"><svg width="100%" height="100%" viewBox="0 0 2048 2048" version="1.1" xmlns="http://www.w3.org/2000/svg" xmlns:xlink="http://www.w3.org/1999/xlink" xml:space="preserve" xmlns:serif="http://www.serif.com/" style="fill-rule:evenodd;clip-rule:evenodd;stroke-linejoin:round;stroke-miterlimit:2;"><rect id="Logo" x="0" y="0" width="2048" height="2048" style="fill:none;"/><g id="Logo1" serif:id="Logo"><g><path d="M271.578,560.505l123.177,206.72l-246.354,-0l123.177,-206.72Z"/><path d="M517.932,540.642l123.176,226.583l-246.353,-0l123.177,-226.583Z"/><path d="M764.285,487.186l123.177,280.039l-246.354,-0l123.177,-280.039Z"/><path d="M1010.64,430.031l123.177,337.194l-246.354,-0l123.177,-337.194Z"/><path d="M1273.14,487.186l123.177,280.039l-246.353,-0l123.176,-280.039Z"/><path d="M1519.49,540.642l123.177,226.583l-246.354,-0l123.177,-226.583Z"/><path d="M1765.85,560.505l123.177,206.72l-246.354,-0l123.177,-206.72Z"/></g><path d="M570.969,1321.47l0,-221.158l-244.302,0l0,221.158c0,16.572 1.143,27.145 3.429,31.716c1.143,2.286 4.857,4.858 11.144,7.715c6.857,2.286 19.144,4.286 36.859,6c17.716,1.715 38.574,2.572 62.576,2.572l-0,9.429l-336.023,0l0,-9.429c24.573,0 45.718,-0.857 63.433,-2.572c18.287,-1.714 30.574,-3.714 36.86,-6c6.857,-2.857 11.143,-6 12.858,-9.429c2.286,-4 3.429,-14.001 3.429,-30.002l-0,-438.887c-0,-16.572 -1.143,-26.859 -3.429,-30.859c-1.143,-2.286 -5.143,-4.572 -12.001,-6.858c-6.286,-2.286 -19.144,-4.571 -38.574,-6.857c-18.859,-2.286 -39.717,-3.429 -62.576,-3.429l0,-8.572l336.88,-0l0,8.572c-48.575,-0 -82.005,3.429 -100.292,10.286c-5.715,2.286 -9.144,4.572 -10.287,6.858c-2.857,5.143 -4.286,15.429 -4.286,30.859l0,203.157l244.302,-0l0,-203.157c0,-16.001 -1.428,-26.287 -4.286,-30.859c-1.143,-2.286 -4.857,-4.572 -11.143,-6.858c-6.286,-2.286 -19.144,-4.571 -38.574,-6.857c-19.43,-2.286 -40.003,-3.429 -61.719,-3.429l0,-8.572l336.88,-0l0,8.572c-25.716,-0 -46.86,0.857 -63.433,2.571c-16.572,1.715 -29.43,4.286 -38.574,7.715l-7.714,3.429c-4.001,4 -6.001,15.43 -6.001,34.288l0,438.887c0,16.572 1.143,27.145 3.429,31.716c1.143,2.286 4.572,4.572 10.286,6.858c16.573,6.286 50.575,9.429 102.007,9.429l0,9.429l-336.022,0l-0,-9.429c50.289,0 83.719,-3.143 100.292,-9.429c6.286,-2.286 10.001,-4.572 11.144,-6.858c2.285,-4 3.428,-14.572 3.428,-31.716Z" style="fill-rule:nonzero;"/><path d="M1082.72,1386.62l-182.584,-504.034c-8,-22.859 -16.858,-36.574 -26.573,-41.146c-9.715,-4.571 -36.574,-6.857 -80.577,-6.857l0,-8.572l312.879,-0l-0,8.572c-39.432,-0 -66.576,2 -81.434,6c-14.287,3.429 -21.43,10.858 -21.43,22.287c-0,4.572 1.428,11.144 4.286,19.716l133.723,361.739l91.72,-270.018c9.715,-30.288 14.573,-54.29 14.573,-72.005c-0,-45.146 -29.431,-67.719 -88.292,-67.719l0,-8.572l221.158,-0l-0,8.572c-49.146,-0 -84.863,22.287 -107.15,66.861c-6.858,14.287 -17.144,40.86 -30.859,79.72l-136.295,405.456l-23.145,0Z" style="fill-rule:nonzero;"/><path d="M1719.62,1367.76c69.148,-0 122.009,-20.859 158.583,-62.576c36.573,-42.289 54.86,-106.007 54.86,-191.156l10.287,0l-0,264.875l-560.609,0l-0,-9.429c25.144,0 46.574,-0.857 64.29,-2.572c17.715,-1.714 29.716,-3.714 36.002,-6c6.858,-2.857 11.144,-6 12.858,-9.429c2.286,-4 3.429,-14.001 3.429,-30.002l-0,-438.887c-0,-16.572 -1.143,-26.859 -3.429,-30.859c-1.143,-2.286 -5.143,-4.572 -12.001,-6.858c-6.286,-2.286 -19.144,-4.571 -38.574,-6.857c-18.858,-2.286 -39.717,-3.429 -62.575,-3.429l-0,-8.572l352.309,-0l0,8.572c-32.002,-0 -57.147,0.857 -75.434,2.571c-17.715,1.715 -30.287,4.001 -37.716,6.858c-7.43,2.857 -11.716,5.429 -12.859,7.715c-2.857,5.143 -4.286,15.429 -4.286,30.859l0,438.03c0,16.572 1.143,27.144 3.429,31.716c1.143,2.286 4.572,4.572 10.287,6.858c19.43,5.714 53.146,8.572 101.149,8.572Z" style="fill-rule:nonzero;"/><path d="M292.481,1430.3c2.86,-0 5.174,2.986 6.941,8.96c1.767,5.974 2.65,11.527 2.65,16.66c0,5.132 -1.64,7.698 -4.922,7.698c-1.178,0 -2.271,-0.378 -3.281,-1.136c-0.926,-0.757 -2.272,-3.407 -4.039,-7.951c-1.682,-4.627 -4.249,-7.74 -7.698,-9.339c-3.366,-1.683 -7.068,-2.524 -11.106,-2.524c-5.722,-0 -9.887,1.346 -12.495,4.038c-2.524,2.609 -3.786,6.9 -3.786,12.874l-0,134.031c-0,2.019 0.589,3.828 1.767,5.427c1.262,1.514 3.828,2.861 7.698,4.039c3.871,1.093 6.227,2.061 7.068,2.902c0.841,0.842 1.262,1.809 1.262,2.903c-0,4.375 -2.314,6.563 -6.941,6.563c-2.525,-0 -6.227,-0.421 -11.107,-1.262c-4.88,-0.758 -8.497,-1.136 -10.853,-1.136c-2.188,-0 -5.385,0.336 -9.592,1.01c-4.207,0.673 -7.404,1.009 -9.592,1.009c-2.608,0 -4.838,-0.589 -6.689,-1.767c-1.851,-1.178 -2.776,-2.818 -2.776,-4.922c-0,-1.009 0.336,-1.893 1.009,-2.65c0.673,-0.841 2.903,-1.809 6.689,-2.903c3.787,-1.178 6.311,-2.945 7.573,-5.301c1.346,-2.355 2.019,-5.006 2.019,-7.951l0,-135.167c0,-8.161 -5.511,-12.242 -16.533,-12.242c-7.152,-0 -12.242,1.599 -15.271,4.796c-1.851,1.851 -3.197,4.712 -4.039,8.582c-0.841,3.786 -1.724,6.058 -2.65,6.815c-0.841,0.673 -1.893,1.01 -3.155,1.01c-1.346,-0 -2.651,-0.337 -3.913,-1.01c-1.178,-0.757 -1.766,-1.683 -1.766,-2.776c-0,-9.172 0.799,-16.323 2.397,-21.456c1.599,-5.216 3.913,-7.824 6.942,-7.824l98.189,-0Z" style="fill-rule:nonzero;"/><path d="M646.061,1426.64c29.449,-0 52.587,10.096 69.414,30.289c16.828,20.193 25.241,42.868 25.241,68.026c0,18.594 -4.585,35.59 -13.756,50.987c-9.087,15.397 -20.993,26.251 -35.717,32.561c-14.64,6.311 -30.205,9.466 -46.696,9.466c-26.84,-0 -49.179,-9.339 -67.016,-28.018c-17.837,-18.679 -26.756,-42.405 -26.756,-71.181c0,-15.06 3.955,-29.953 11.864,-44.677c7.909,-14.724 19.057,-26.293 33.445,-34.707c14.471,-8.497 31.131,-12.746 49.977,-12.746Zm-0.757,179.213c15.818,0 28.986,-3.492 39.503,-10.475c10.601,-6.983 18.174,-15.566 22.717,-25.746c4.543,-10.265 6.815,-23.895 6.815,-40.891c0,-29.364 -6.142,-51.787 -18.426,-67.268c-12.284,-15.566 -28.901,-23.349 -49.852,-23.349c-21.623,0 -38.535,7.993 -50.735,23.98c-12.2,15.902 -18.3,34.791 -18.3,56.666c0,58.056 22.76,87.083 68.278,87.083Z" style="fill-rule:nonzero;"/><path d="M1011.76,1452.26c-0,-6.732 -4.543,-10.097 -13.63,-10.097c-5.722,-0 -8.582,-1.893 -8.582,-5.679c-0,-3.618 2.86,-5.427 8.582,-5.427c3.281,-0 6.941,0.378 10.98,1.136c4.038,0.673 7.446,1.009 10.222,1.009c2.356,0 6.437,-0.462 12.242,-1.388c5.806,-1.01 12.747,-1.514 20.825,-1.514c19.856,-0 35.085,4.585 45.686,13.756c10.686,9.087 16.029,19.941 16.029,32.561c-0,9.929 -2.482,17.543 -7.447,22.844c-4.88,5.301 -11.695,10.012 -20.445,14.135c-8.666,4.123 -20.025,6.184 -34.076,6.184c-8.161,0 -12.242,-2.44 -12.242,-7.32c0,-1.262 0.547,-2.272 1.641,-3.029c1.178,-0.841 2.734,-1.262 4.669,-1.262c0.421,0 1.809,0.084 4.165,0.253c2.356,0.168 4.502,0.252 6.437,0.252c9.087,-0 16.575,-2.819 22.465,-8.456c5.973,-5.637 8.96,-13.504 8.96,-23.601c0,-9.507 -3.66,-17.879 -10.98,-25.115c-7.32,-7.236 -17.164,-10.853 -29.532,-10.853c-4.459,-0 -7.657,0.631 -9.592,1.893c-1.851,1.178 -3.029,2.944 -3.534,5.3c-0.42,2.272 -0.631,5.974 -0.631,11.106l0,134.158c0,6.563 4.249,9.844 12.747,9.844c4.123,0 6.857,0.547 8.204,1.641c1.43,1.094 2.145,2.692 2.145,4.796c0,3.45 -3.449,5.174 -10.349,5.174c-2.187,0 -6.31,-0.799 -12.368,-2.398c-5.974,-1.682 -9.802,-2.524 -11.485,-2.524c-2.524,0 -6.268,0.842 -11.232,2.524c-4.88,1.599 -8.288,2.398 -10.223,2.398c-7.236,0 -10.854,-2.145 -10.854,-6.436c0,-1.178 0.379,-2.146 1.136,-2.903c0.841,-0.841 3.576,-1.43 8.204,-1.767c4.711,-0.421 7.866,-1.977 9.465,-4.669c1.599,-2.777 2.398,-6.016 2.398,-9.718l-0,-136.808Z" style="fill-rule:nonzero;"/><path d="M1382.88,1457.18c0,-4.88 -0.967,-8.204 -2.902,-9.971c-1.851,-1.851 -4.291,-3.197 -7.32,-4.038c-2.945,-0.926 -5.007,-1.809 -6.184,-2.651c-1.094,-0.841 -1.641,-2.356 -1.641,-4.543c-0,-1.262 0.547,-2.314 1.641,-3.155c1.177,-0.842 2.524,-1.262 4.038,-1.262c2.608,-0 6.563,0.462 11.864,1.388c5.3,0.841 9.339,1.262 12.115,1.262c2.525,-0 6.227,-0.379 11.107,-1.136c4.964,-0.841 8.666,-1.262 11.106,-1.262c4.207,0 6.31,1.725 6.31,5.175c0,2.103 -0.547,3.533 -1.641,4.291c-1.093,0.757 -3.323,1.472 -6.688,2.145c-3.366,0.589 -5.806,2.356 -7.32,5.301c-1.515,2.86 -2.272,7.067 -2.272,12.62l-0,131.003c-0,2.44 0.547,4.628 1.64,6.563c1.178,1.851 3.703,3.323 7.573,4.417c3.954,1.01 6.352,2.103 7.194,3.281c0.841,1.094 1.262,2.398 1.262,3.913c-0,3.029 -2.609,4.543 -7.825,4.543c-2.356,0 -5.806,-0.421 -10.349,-1.262c-4.543,-0.841 -7.993,-1.262 -10.349,-1.262c-2.188,0 -5.553,0.337 -10.097,1.01c-4.459,0.673 -7.824,1.009 -10.096,1.009c-6.31,0 -9.466,-1.977 -9.466,-5.931c0,-1.094 0.337,-2.062 1.01,-2.903c0.673,-0.841 3.029,-1.599 7.068,-2.272c4.122,-0.757 6.857,-2.566 8.203,-5.427c1.346,-2.945 2.019,-6.226 2.019,-9.844l0,-131.002Z" style="fill-rule:nonzero;"/><path d="M1765.62,1476.11c-1.683,-3.871 -2.945,-5.806 -3.786,-5.806c-1.01,0 -2.524,2.692 -4.544,8.077l-27.008,61.715l-23.348,51.998c-0.673,1.598 -1.01,2.986 -1.01,4.164c0,1.262 0.463,2.398 1.388,3.408c1.01,1.01 3.324,2.019 6.942,3.029c3.618,1.01 5.889,2.019 6.815,3.029c0.925,1.01 1.388,2.145 1.388,3.407c0,3.871 -2.524,5.806 -7.572,5.806c-1.178,-0 -4.081,-0.379 -8.708,-1.136c-4.544,-0.673 -8.33,-1.01 -11.359,-1.01c-3.113,0 -6.31,0.337 -9.592,1.01c-3.281,0.673 -5.679,1.01 -7.194,1.01c-2.103,-0 -3.828,-0.589 -5.174,-1.767c-1.346,-1.094 -2.019,-2.398 -2.019,-3.913c-0,-2.187 0.42,-3.617 1.262,-4.291c0.841,-0.673 2.398,-1.177 4.669,-1.514c6.563,-1.094 11.064,-3.534 13.504,-7.32c2.525,-3.87 8.919,-17.459 19.184,-40.765l30.542,-68.151c7.488,-16.323 12.284,-27.135 14.387,-32.436c2.188,-5.384 3.282,-9.549 3.282,-12.494c-0,-1.01 -0.379,-2.819 -1.136,-5.427c-0.673,-2.692 -1.01,-4.627 -1.01,-5.805c0,-2.44 1.304,-3.66 3.913,-3.66c4.291,-0 7.74,1.809 10.349,5.426c2.608,3.618 6.1,10.434 10.475,20.446l34.959,79.005c12.705,28.776 20.74,46.571 24.106,53.386c3.365,6.815 6.1,11.232 8.203,13.252c2.188,1.935 4.754,3.365 7.699,4.291c3.029,0.925 5.09,1.851 6.184,2.776c1.094,0.841 1.64,2.314 1.64,4.417c0,2.861 -2.65,4.291 -7.951,4.291c-1.766,0 -5.006,-0.252 -9.717,-0.757c-4.628,-0.505 -9.256,-0.757 -13.883,-0.757c-4.628,-0 -9.466,0.294 -14.514,0.883c-4.964,0.589 -8.372,0.884 -10.223,0.884c-2.86,-0 -5.132,-0.505 -6.815,-1.515c-1.683,-0.925 -2.524,-2.229 -2.524,-3.912c-0,-1.43 0.505,-2.608 1.514,-3.534c1.01,-0.925 3.703,-1.599 8.078,-2.019c4.459,-0.421 7.32,-1.346 8.582,-2.777c1.346,-1.514 2.019,-3.365 2.019,-5.553c0,-2.356 -2.398,-8.834 -7.194,-19.436c-4.796,-10.685 -7.782,-16.364 -8.96,-17.038c-1.178,-0.673 -3.45,-1.009 -6.816,-1.009l-56.414,-0c-2.188,-0 -4.165,-0.673 -5.932,-2.02c-1.767,-1.43 -2.65,-3.071 -2.65,-4.922c-0,-1.43 0.673,-2.692 2.019,-3.786c1.431,-1.094 3.029,-1.641 4.796,-1.641l54.269,0c3.029,0 4.543,-0.546 4.543,-1.64c0,-0.673 -0.588,-2.314 -1.766,-4.922l-27.892,-62.977Z" style="fill-rule:nonzero;"/></g></svg>